PathFileType	4	(X/Y/Z)	D:\TRACE\v60_Jaco2_6-2-23\BothDRS_Motion1_3-v60.trc
DataRate	CameraRate	NumFrames	NumMarkers	Units	OrigDataRate	OrigDataStartFrame	OrigNumFrames
100.00	100.00	      25	9	mm	100.00	1	      7073
Frame#	Time	front left toe			Front right toe			aft left toe			aft right toe			Arm			FL body			FR body			AL Body			AR Body			
		X1	Y1	Z1	X2	Y2	Z2	X3	Y3	Z3	X4	Y4	Z4	X5	Y5	Z5	X6	Y6	Z6	X7	Y7	Z7	X8	Y8	Z8	X9	Y9	Z9	

1	0.000	-192.41933	19.35928	-284.93085	217.09586	18.95260	-350.63901	-95.63751	12.79861	313.97211	300.36832	18.32059	288.82034	18.90930	1218.50757	-322.37253	-89.62433	579.39362	-433.21295	68.87972	580.06360	-457.10431	51.18911	582.30267	502.44104	205.67262	577.03290	479.74924	
2	0.010	-192.44119	19.39920	-284.94806	217.09189	18.96712	-350.64444	-95.62862	12.80821	313.99112	300.36798	18.35840	288.82864	18.90693	1218.51709	-322.35931	-89.31494	579.40771	-433.01657	68.92540	580.03448	-457.14188	51.19775	582.31030	502.44516	205.66803	577.04077	479.74673	
3	0.020	-192.41591	19.37539	-284.95221	217.11172	18.96134	-350.65643	-95.67897	12.83580	313.95227	300.38220	18.39331	288.80920	18.95093	1218.50159	-322.38104	-89.62968	579.38745	-433.19568	68.89706	580.08911	-457.16272	51.17926	582.31000	502.44101	205.73221	577.06403	479.74228	
4	0.030	-192.43433	19.42518	-284.96933	217.13109	18.97087	-350.63846	-95.67631	12.81667	313.97485	300.36728	18.35799	288.79108	18.93667	1218.51685	-322.37738	-89.24807	579.35474	-433.00455	68.91289	580.06171	-457.14877	51.15615	582.30981	502.43344	205.71214	577.04572	479.74570	
5	0.040	-192.53416	19.47276	-284.92285	217.07033	18.95257	-350.65598	-95.68241	12.80809	313.97113	300.25354	18.29797	288.79044	18.91202	1218.51611	-322.35739	-89.63631	579.43347	-433.19492	68.91656	580.05328	-457.16531	51.16915	582.32733	502.42590	205.65895	577.03333	479.74899	
6	0.050	-192.48674	19.39179	-284.92145	217.10667	18.96277	-350.63278	-95.61468	12.81654	313.95117	300.32233	18.33343	288.81268	18.93670	1218.52405	-322.37534	-89.60929	579.39526	-433.21454	68.93031	580.05188	-457.13116	51.16204	582.32532	502.42892	205.66655	577.03998	479.74747	
7	0.060	-192.52534	19.44392	-284.92993	217.12141	18.97993	-350.64960	-95.71236	12.85693	313.96902	300.26871	18.32547	288.78580	18.93582	1218.53198	-322.35571	-89.57551	579.45557	-433.17630	68.89973	580.08374	-457.15558	51.14567	582.33087	502.43079	205.69453	577.05823	479.74643	
8	0.070	-192.54459	19.47515	-284.95660	217.17599	18.99441	-350.61050	-95.65816	12.83330	313.94128	300.30142	18.33125	288.81012	18.70774	1218.59863	-322.37823	-89.24941	579.37152	-433.01212	68.88188	580.08685	-457.13562	51.13128	582.31842	502.44092	205.69962	577.04724	479.73251	
9	0.080	-192.45789	19.41850	-284.94482	217.12384	18.94880	-350.61804	-95.63963	12.82348	313.97504	300.38733	18.37102	288.81885	18.67920	1218.58423	-322.39630	-89.23441	579.32367	-432.98795	68.91875	580.08026	-457.10785	51.17070	582.31274	502.45401	205.74870	577.06116	479.74899	
10	0.090	-192.47404	19.42401	-284.95734	217.10704	18.96153	-350.65210	-95.63743	12.80379	313.91843	300.35306	18.35455	288.82791	18.94560	1218.52124	-322.35495	-89.59104	579.42841	-433.18365	68.93513	580.07935	-457.13910	51.13858	582.32758	502.43747	205.69576	577.05792	479.73215	
11	0.100	-192.46506	19.40193	-284.95529	217.08623	18.99141	-350.65585	-95.71301	12.82938	313.98178	300.31024	18.33400	288.81506	18.94024	1218.52979	-322.35385	-89.64034	579.41681	-433.18460	68.90580	580.08264	-457.11368	51.15926	582.33844	502.43695	205.63272	577.02808	479.74719	
12	0.110	-192.46861	19.41466	-284.90823	217.11147	18.96505	-350.65616	-95.65344	12.83361	313.97769	300.37790	18.32496	288.82361	18.95641	1218.53198	-322.36465	-89.61660	579.44196	-433.16974	68.91474	580.07104	-457.16220	51.16038	582.29913	502.47675	205.68437	577.03864	479.72568	
13	0.120	-192.46317	19.43522	-284.96072	217.10841	18.96187	-350.65891	-95.61158	12.79139	313.97763	300.34784	18.34483	288.81070	18.73917	1218.59460	-322.38174	-89.60613	579.42078	-433.16006	68.91940	580.05914	-457.13120	51.17585	582.33069	502.44586	205.68750	577.05585	479.75443	
14	0.130	-192.46306	19.45985	-284.94849	217.13280	18.95005	-350.66321	-95.63563	12.81794	313.96237	300.42865	18.38010	288.83704	19.01114	1218.53308	-322.36533	-89.62274	579.42017	-433.20996	68.91625	580.04565	-457.15158	51.18729	582.33453	502.43134	205.72514	577.05835	479.74353	
15	0.140	-192.41202	19.39822	-284.94681	217.07053	18.97825	-350.63574	-95.61436	12.80166	313.97113	300.35147	18.31759	288.82001	18.95552	1218.51270	-322.38159	-89.58758	579.46698	-433.18454	68.89683	580.07068	-457.15274	51.14764	582.31317	502.45264	205.65042	577.03265	479.74377	
16	0.150	-192.47484	19.38452	-284.93024	217.22176	18.98831	-350.64618	-95.62458	12.81392	313.96826	300.30469	18.34241	288.82938	18.97351	1218.50830	-322.37006	-89.62124	579.43353	-433.20453	68.89177	580.07825	-457.13803	51.16393	582.28528	502.42850	205.58884	577.01752	479.74423	
17	0.160	-192.45647	19.40199	-284.91895	217.05888	18.98420	-350.65512	-95.67551	12.79969	313.95731	300.31195	18.33560	288.81024	18.94671	1218.52917	-322.35492	-89.61419	579.43024	-433.18689	68.90061	580.07098	-457.11371	51.19061	582.33173	502.42639	205.62149	577.02246	479.74814	
18	0.170	-192.42853	19.37522	-284.95859	217.17389	18.95834	-350.62500	-95.64371	12.78323	313.94653	300.28772	18.32128	288.78098	18.95803	1218.51929	-322.36685	-89.62965	579.48114	-433.17538	68.91331	580.08246	-457.12210	51.17303	582.31396	502.43964	205.66600	577.02838	479.74207	
19	0.180	-192.46570	19.41459	-284.93561	217.08514	18.98105	-350.65814	-95.63948	12.82368	313.99020	300.37723	18.38729	288.81915	18.96829	1218.51917	-322.35712	-89.57923	579.43793	-433.15616	68.89063	580.06232	-457.13489	51.21598	582.30664	502.46503	205.71538	577.03992	479.75806	
20	0.190	-192.42065	19.42556	-284.95905	217.20276	18.98287	-350.64508	-95.61786	12.79506	313.98251	300.36691	18.33127	288.84137	18.96468	1218.51648	-322.35522	-89.57082	579.40973	-433.20718	68.91022	580.07104	-457.13599	51.16961	582.32129	502.43130	205.69464	577.03564	479.72678	
21	0.200	-192.47221	19.40176	-284.94296	217.08131	18.97644	-350.61954	-95.64565	12.81967	313.96622	300.36209	18.32960	288.84222	18.96611	1218.53247	-322.35880	-89.65085	579.43811	-433.19565	68.93712	580.05994	-457.12598	51.17660	582.30493	502.42062	205.65968	577.02881	479.75235	
22	0.210	-192.44768	19.34587	-284.94049	217.08710	18.97173	-350.64188	-95.63076	12.80437	313.95984	300.31668	18.31243	288.77881	18.94432	1218.51807	-322.36502	-89.61234	579.44006	-433.18991	68.90206	580.05005	-457.12225	51.13862	582.30231	502.42929	205.66403	577.03528	479.72781	
23	0.220	-192.48058	19.43629	-284.92664	217.10403	18.95794	-350.64182	-95.61892	12.81190	313.96552	300.35959	18.35866	288.82709	18.97627	1218.54724	-322.38553	-89.56770	579.42969	-433.14328	68.88848	580.07520	-457.13092	51.16533	582.31647	502.42340	205.70341	577.06952	479.75391	
24	0.230	-192.42824	19.38978	-284.93558	217.09338	18.94007	-350.65854	-95.65361	12.80405	313.97086	300.39316	18.35275	288.83679	18.71909	1218.58801	-322.40112	-89.55712	579.45099	-433.15936	68.92530	580.05023	-457.14481	51.19063	582.31854	502.41949	205.66528	577.04785	479.75012	
25	0.240	-192.49719	19.43789	-284.96692	217.07515	18.97281	-350.64322	-95.60951	12.81656	313.98740	300.39581	18.37524	288.81912	18.71266	1218.59631	-322.40195	-89.59005	579.42474	-433.16556	68.88900	580.08295	-457.13116	51.19880	582.30896	502.45316	205.71983	577.07880	479.76440	
